<svg width="19" height="19" viewBox="0 0 19 19" fill="none" xmlns="http://www.w3.org/2000/svg">
<g clip-path="url(#clip0_188_7084)">
<path d="M3.75 10.25H8.25C8.6625 10.25 9 9.9125 9 9.5V3.5C9 3.0875 8.6625 2.75 8.25 2.75H3.75C3.3375 2.75 3 3.0875 3 3.5V9.5C3 9.9125 3.3375 10.25 3.75 10.25ZM3.75 16.25H8.25C8.6625 16.25 9 15.9125 9 15.5V12.5C9 12.0875 8.6625 11.75 8.25 11.75H3.75C3.3375 11.75 3 12.0875 3 12.5V15.5C3 15.9125 3.3375 16.25 3.75 16.25ZM11.25 16.25H15.75C16.1625 16.25 16.5 15.9125 16.5 15.5V9.5C16.5 9.0875 16.1625 8.75 15.75 8.75H11.25C10.8375 8.75 10.5 9.0875 10.5 9.5V15.5C10.5 15.9125 10.8375 16.25 11.25 16.25ZM10.5 3.5V6.5C10.5 6.9125 10.8375 7.25 11.25 7.25H15.75C16.1625 7.25 16.5 6.9125 16.5 6.5V3.5C16.5 3.0875 16.1625 2.75 15.75 2.75H11.25C10.8375 2.75 10.5 3.0875 10.5 3.5Z" fill="#8712C2"/>
</g>
<defs>
<clipPath id="clip0_188_7084">
<rect width="18" height="18" fill="white" transform="translate(0.75 0.5)"/>
</clipPath>
</defs>
</svg>
